<svg width="344" height="345" viewBox="0 0 344 345" fill="none" xmlns="http://www.w3.org/2000/svg">
<path d="M171.961 1.01575C230.986 1.01575 286.852 18.9572 337.953 48.4202L341.685 50.0825L340.651 54.0949C340.536 113.021 324.804 167.017 295.292 218.033C265.837 269.048 225.761 310.893 174.717 340.413L171.961 342.419L169.033 340.298C117.99 310.778 79.5779 269.22 50.0658 218.205C20.5536 167.132 3.21381 110.499 3.1564 51.5728L2.63965 48.8214L4.64923 47.2737C55.75 17.8681 112.88 0.671823 171.904 0.614502" fill="#8D33E5"/>
<path d="M339.789 46.7595C288.688 17.2965 230.984 1.07471 171.96 1.07471V340.472L175.749 342.765C226.793 313.245 268.362 270.77 297.875 219.754C327.387 168.738 343.119 111.761 343.234 52.8355V48.6511L339.789 46.7595Z" fill="#7000DF"/>
<path d="M343.868 52.0901V47.7337L340.136 45.4981C288.978 16.0352 230.987 0.501221 171.963 0.501221C112.939 0.501221 54.9477 16.0352 3.84691 45.4981L0 47.7337V52.0901C0.114833 111.016 15.6747 168.853 45.1869 219.868C74.699 270.884 117.073 313.302 168.173 342.822L171.963 345L175.752 342.822C226.796 313.302 269.227 270.884 298.739 219.868C328.193 168.853 343.753 111.016 343.868 52.0901ZM171.905 327.918C72.7469 270.024 9.3015 166.617 8.66991 51.9754C58.5076 23.9455 114.776 9.15668 171.963 9.15668C229.15 9.15668 285.418 23.8882 335.256 51.9754C334.682 166.732 271.179 270.024 171.905 327.918Z" fill="#7000DF"/>
<path d="M171.963 327.918C72.7469 270.024 9.30149 166.617 8.66991 51.9754C58.5075 23.9455 114.776 9.214 171.963 9.15668V0.501221C112.939 0.501221 54.9477 16.0352 3.7895 45.4981L0 47.7337V52.0901C0.114833 111.016 15.6747 168.853 45.1869 219.868C74.699 270.884 117.073 313.302 168.173 342.822L171.963 345V327.918Z" fill="#8D33E5"/>
<path d="M280.133 107.692C280.133 106.373 279.903 105.112 279.501 103.909C277.836 98.7497 272.152 84.8207 262.678 73.1846C260.956 70.8344 258.946 68.5989 256.994 66.2487L255.501 64.5291C254.87 63.8413 254.181 63.2681 253.377 62.8095C251.826 61.8924 249.989 61.4338 248.152 61.4911C247.233 61.5484 246.372 61.7204 245.511 62.007C245.109 62.1216 244.707 62.2936 244.305 62.5229C244.305 62.5229 181.663 96.5142 171.96 101.558C162.257 96.5142 99.9595 62.3509 98.4093 62.2363C97.5481 61.9497 96.6868 61.7777 95.7681 61.7204C93.9308 61.6631 92.1509 62.1216 90.5432 63.0388C89.7394 63.4973 88.993 64.0706 88.4188 64.7584L86.926 66.478C84.9738 68.7135 83.0791 70.9491 81.2417 73.4139C74.1221 81.6108 66.256 97.6033 64.6483 102.59C63.9019 104.138 63.5 105.858 63.5 107.692C63.5 111.418 65.2225 114.8 67.9211 116.978C68.2082 117.207 68.4378 117.436 68.7249 117.608L69.5287 118.124L70.7345 118.927L80.5527 125.06L100.074 137.212L119.653 149.536L135.845 159.395L136.075 228.352L136.189 235.804L136.362 239.587C136.362 240.218 136.362 240.963 136.477 241.765C136.591 243.141 136.878 244.459 137.395 245.721C138.429 247.956 139.979 249.962 141.931 251.453C143.883 252.943 146.237 253.917 148.649 254.605C151.06 255.236 153.127 255.58 156.113 256.096C166.678 257.586 177.357 257.586 187.922 256.096C191.654 255.465 192.745 255.236 195.271 254.663C198.199 253.975 200.094 253 202.046 251.453C203.998 249.962 205.549 247.956 206.582 245.721C207.099 244.459 207.386 243.141 207.501 241.765C207.558 240.906 207.616 240.275 207.616 239.587C207.616 239.587 208.477 177.509 208.19 159.453L224.324 149.593L243.903 137.155L263.482 124.773L273.3 118.64L273.415 118.468C277.319 116.519 280.133 112.449 280.133 107.692Z" fill="#3F017F"/>
<path d="M143.424 155.555C143.482 149.765 142.219 144.033 139.692 138.76C137.166 133.544 133.491 128.958 128.955 125.347C116.037 115.086 95.9982 111.36 76.534 115.602C75.2708 115.831 71.711 113.711 70.4478 113.424C70.333 113.367 70.1608 113.195 70.8498 113.825C71.022 113.997 71.3665 114.914 71.5388 115.029L143.424 156.243V155.555Z" fill="#F4A900"/>
<path d="M206.418 110.27C221.748 104.251 235.011 88.7747 241.098 69.8588C241.557 68.4831 243.968 68.1392 245.059 67.2221C245.404 66.9355 244.256 65.7317 244.657 65.5024L172.025 107.289L172.944 107.805C177.939 110.729 183.566 112.506 189.423 112.907C195.222 113.365 201.021 112.448 206.418 110.27Z" fill="#78B6E4"/>
<path d="M199.172 157.388C194.177 160.312 189.928 164.324 186.77 169.082C183.555 173.897 181.545 179.342 180.741 185.074C178.444 201.239 185.22 220.384 198.54 235.001C199.574 236.09 199.516 238.096 199.746 239.529C199.803 239.93 200.148 239.931 200.55 240.16L200.837 156.529L199.172 157.388Z" fill="#20B5AC"/>
<path d="M184.187 188.226C185.622 176.876 193.259 167.476 203.766 161.113L200.78 156.47L199.173 157.445C194.178 160.368 189.929 164.381 186.771 169.138C183.555 173.953 181.546 179.399 180.742 185.131C178.675 199.346 183.728 215.912 194.063 229.669C186.139 216.371 182.407 201.352 184.187 188.226Z" fill="#3F017F"/>
<path d="M207.105 105.972C196.483 110.328 184.598 108.379 173.861 102.36L171.277 107.233L172.942 108.207C177.938 111.073 183.507 112.793 189.249 113.194C194.99 113.595 200.79 112.678 206.129 110.557C219.278 105.456 233.574 91.6415 240.464 76.3368C240.579 76.0502 239.431 74.7891 238.34 77.082C230.704 90.495 219.507 101.042 207.105 105.972Z" fill="#3F017F"/>
<path d="M124.821 127.752C133.72 134.975 137.739 144.719 137.51 156.928L143.022 158.648L144.744 156.756C145.089 145.12 139.979 130.561 130.849 123.109C120.227 114.167 97.8923 111.186 82.9065 113.422C82.3324 113.536 82.0453 114.396 86.007 114.224C101.624 114.454 114.601 119.211 124.821 127.752Z" fill="#3F017F"/>
<path d="M171.963 249.732C164.211 249.789 156.46 248.757 148.996 246.751C147.388 246.293 146.01 245.318 144.977 244C144.001 242.681 143.426 241.076 143.426 239.414V155.554C143.484 149.764 142.163 144.032 139.694 138.759C137.168 133.542 133.493 128.957 128.958 125.346C116.039 115.085 96.0004 111.359 76.5361 115.601C74.584 116.06 72.517 115.716 70.7945 114.627C69.072 113.537 67.8662 111.818 67.4069 109.869C67.0624 108.436 67.1772 106.888 67.694 105.513C70.1629 98.5194 73.206 91.8128 76.8232 85.3355C80.6701 78.5717 85.4357 72.4383 90.9477 66.9928C92.1534 65.8464 93.7037 65.1013 95.3114 64.9293C96.9764 64.7573 98.6415 65.0439 100.077 65.9037L170.986 106.774L172.881 107.863C177.876 110.786 183.503 112.563 189.36 112.964C195.159 113.365 200.958 112.448 206.355 110.27C221.685 104.251 234.949 88.7748 241.035 69.8589C241.322 68.8844 241.839 68.0246 242.47 67.2221C243.102 66.477 243.906 65.8464 244.824 65.3305C245.743 64.872 246.719 64.5854 247.695 64.4707C248.671 64.3561 249.705 64.4707 250.681 64.8146C252.116 65.2732 253.322 66.0757 254.298 67.2221C259.121 72.8396 263.427 78.9156 267.217 85.2782C271.178 91.9848 274.164 99.1499 276.116 106.659C276.518 108.264 276.346 109.984 275.714 111.474C275.083 113.022 273.934 114.283 272.499 115.085L201.13 156.242L199.178 157.388C194.183 160.311 189.934 164.324 186.776 169.081C183.561 173.896 181.551 179.342 180.747 185.074C178.451 201.238 185.226 220.384 198.546 235C199.465 236.032 200.097 237.236 200.384 238.612C200.671 239.93 200.556 241.363 200.154 242.624C199.695 243.943 198.891 245.089 197.857 245.949C196.824 246.809 195.561 247.439 194.183 247.668C186.833 248.929 179.369 249.617 171.963 249.732Z" fill="white"/>
</svg>
