<?xml version="1.0" encoding="utf-8"?>
<!-- Generator: Adobe Illustrator 23.0.0, SVG Export Plug-In . SVG Version: 6.00 Build 0)  -->
<svg version="1.1" id="Layer_1" xmlns="http://www.w3.org/2000/svg" xmlns:xlink="http://www.w3.org/1999/xlink" x="0px" y="0px"
	 viewBox="0 0 1190.55 841.89" style="enable-background:new 0 0 1190.55 841.89;" xml:space="preserve">
<style type="text/css">
	.st0{fill:#FFFFFF;}
	.st1{fill-rule:evenodd;clip-rule:evenodd;fill:#F06623;}
	.st2{fill-rule:evenodd;clip-rule:evenodd;fill:#79B6E3;}
	.st3{fill-rule:evenodd;clip-rule:evenodd;fill:#1FB4AC;}
	.st4{fill-rule:evenodd;clip-rule:evenodd;fill:#F3A91D;}
	.st5{fill:#F06623;}
	.st6{fill:#F3A91D;}
	.st7{fill:#1FB4AC;}
	.st8{fill:#79B6E3;}
	.st9{fill:#CE5027;}
	.st10{fill:#C7872B;}
	.st11{fill:#009F91;}
	.st12{fill:#498FBF;}
	.st13{fill:#121212;}
	.st14{fill-rule:evenodd;clip-rule:evenodd;fill:#636466;}
	.st15{fill-rule:evenodd;clip-rule:evenodd;fill:#A7A9AC;}
	.st16{fill-rule:evenodd;clip-rule:evenodd;fill:#939598;}
	.st17{fill-rule:evenodd;clip-rule:evenodd;fill:#7B7C7F;}
	.st18{fill:#636466;}
	.st19{fill:#7B7C7F;}
	.st20{fill:#939598;}
	.st21{opacity:0.4;}
	.st22{fill:#221F1F;}
	.st23{fill:#1A1A1A;}
	.st24{fill:#28477C;}
	.st25{fill:#BE1E32;}
	.st26{fill:#913F91;}
	.st27{fill-rule:evenodd;clip-rule:evenodd;fill:#28477C;}
	.st28{fill-rule:evenodd;clip-rule:evenodd;fill:#913F91;}
	.st29{fill-rule:evenodd;clip-rule:evenodd;fill:#BE1E32;}
</style>
<g>
	<g>
		<path class="st1" d="M206.52,316.36c33.36-9.5,47.52-7.05,73.54-4.34c-34.66-16.34-72.53-25.27-110.91-25.27
			c-5.71,0-11.42,0.2-17.1,0.59c8.41,4.65,16.61,10.76,23.04,17.3c3.96,4.04,12.1,13.52,17.68,14.49
			C197.01,319.87,203.28,317.28,206.52,316.36"/>
		<path class="st2" d="M247.9,452.77c-2.89-12.85-6.73-25.61-10.69-37.87c-2.07-6.4-4.34-12.73-6.57-19.07
			c-2.18-6.21-4.6-12.34-7.11-18.43c-11.13-26.1-9.98-26.23,10.38-37.98c13.82-7.04,35.54-16.99,51.09-16.22
			c0.54,0.03,1.08,0.07,1.61,0.11C286.57,370,272.71,414.85,247.9,452.77"/>
		<path class="st3" d="M76.62,428.76c13.22-10.42,28.02-20.35,38.78-27.16c14.71-9.31,33.44-18.97,44.37-24.15
			c4.72-2.24,11.02-5.39,15.58-5.74c1.89-0.14,3.65,0.01,4.84,0.52c4.89,2.06,13.07,15.26,13.07,15.26l0.09,0.14
			c1.46,2.12,2.78,4.36,4.31,6.43c1.61,2.21,3.11,4.74,4.55,7.08c2.16,3.52,4.27,7.06,6.37,10.61c3.4,5.74,7.08,11.76,10.14,17.67
			c5.07,9.83,12.16,23.78,18.24,38.69c-17.52,22.62-39.22,42.21-64.44,57.49l-3.37,2.04l-3.37-2.04
			C126.88,502.02,96.29,468.17,76.62,428.76"/>
		<path class="st4" d="M127.54,290.23c1.22,1.34,2.37,2.66,3.43,3.92c2.34,2.8,4.6,5.74,6.79,8.66c2.33,3.1,5.48,6.92,7.35,10.3
			c3.1,5.63,9.68,14.11,11.63,19.32c0,0,1.24,2.99,0.75,5.06c-0.51,2.14-2.44,3.53-2.44,3.53c-2.53,2.08-3.77,2.74-5.93,4.31
			c-9.49,6.94-18.56,14.36-27.76,21.67c-10.3,8.18-20.53,17.81-29.97,26.98c-6.51,6.31-13.86,13.89-20.7,21.91
			c-12.84-30.1-19.52-63-18.96-96.76l0.06-4l3.6-1.75C78.26,302.28,102.57,294.41,127.54,290.23"/>
	</g>
	<g>
		<g>
			<g>
				<polygon class="st5" points="1129.77,346.8 1122.08,346.8 1087.79,399.2 1091.62,405.14 1126.99,351.09 				"/>
				<polygon class="st6" points="1113.25,346.8 1083.4,392.42 1086.76,397.62 1120.01,346.8 				"/>
				<polygon class="st7" points="1104.63,346.8 1079.12,385.8 1082.45,390.94 1111.33,346.8 				"/>
				<polygon class="st8" points="1094.71,346.8 1081.94,366.32 1074.19,378.18 1078.05,384.15 1102.49,346.8 				"/>
			</g>
			<g>
				<polygon class="st9" points="1087.79,399.2 1091.62,405.14 1099.93,392.42 1096.09,386.48 				"/>
				<polygon class="st10" points="1086.76,397.62 1095.06,384.9 1091.7,379.7 1083.4,392.42 				"/>
				<polygon class="st11" points="1082.45,390.94 1090.75,378.23 1087.42,373.08 1079.12,385.8 				"/>
				<polygon class="st12" points="1074.19,378.18 1078.05,384.15 1086.35,371.43 1082.49,365.45 1078,372.31 				"/>
			</g>
		</g>
		<g>
			<path class="st13" d="M349.7,346.8h49.97c23.39,0,39.2,17.16,39.2,41.39c0,24.23-15.82,41.72-39.2,41.72h-20.52v37.19H349.7
				V346.8z M393.61,404.68c10.26,0,15.31-6.9,15.31-16.49c0-9.59-5.05-16.15-14.8-16.15h-14.97v32.64H393.61z"/>
			<path class="st13" d="M452.13,379.24h27.54v19.75c3.66-11.62,14.44-21.24,27.22-21.24c1.16,0,2.32,0.16,3.32,0.33v28.21
				c-1-0.33-3.81-0.5-5.81-0.5c-15.93,0-23.57,10.12-23.57,25.72v33.19h-28.7V379.24z"/>
			<path class="st13" d="M568.42,377.25c27.05,0,48.62,18.09,48.62,44.98c0,26.72-21.57,44.47-48.45,44.47
				c-26.88,0-48.46-17.75-48.46-44.47C520.12,395.34,541.7,377.25,568.42,377.25 M568.58,442.8c10.46,0,19.42-7.79,19.42-20.57
				c0-12.95-8.96-21.08-19.42-21.08c-10.46,0-19.42,8.13-19.42,21.08C549.17,435.01,558.12,442.8,568.58,442.8"/>
			<path class="st13" d="M968.27,411.44h2.49v-1.5c0-7.14-5.81-9.46-12.12-9.46c-8.3,0-16.76,3.65-23.56,8.13l-9.96-20.24
				c7.3-5.64,22.23-11.12,36.18-11.12c23.56,0,38.16,13.11,38.16,34.85v52.61h-26.22v-10.46c-5.64,7.96-15.6,12.45-25.39,12.45
				c-16.43,0-27.88-11.28-27.88-26.05C919.98,417.74,947.2,411.44,968.27,411.44 M956.49,445.29c8.3,0,14.6-8.14,14.6-15.11v-2.32
				h-2.65c-8.79,0-20.08,2.32-20.08,10.12C948.36,441.97,951.18,445.29,956.49,445.29"/>
			<polygon class="st13" points="1054.01,346.96 1017.7,346.96 1055.91,406.07 1016.07,467.11 1051.57,467.11 1073.52,433.3 
				1095.37,467.11 1131.69,467.11 1091.72,405.28 1074.15,378.12 			"/>
			<g>
				<rect x="725.81" y="379.24" class="st13" width="28.7" height="85.45"/>
				<g>
					<defs>
						<rect id="SVGID_1_" x="726.14" y="346.05" width="28.05" height="22.4"/>
					</defs>
					<use xlink:href="#SVGID_1_"  style="overflow:visible;fill:#121212;"/>
					<clipPath id="SVGID_2_">
						<use xlink:href="#SVGID_1_"  style="overflow:visible;"/>
					</clipPath>
				</g>
			</g>
			<path class="st13" d="M774.46,380.14h28.78v11.21c5.3-6.82,12.88-13.03,24.39-13.03c10.91,0,19.24,4.85,23.63,13.33
				c7.12-8.18,15.45-13.33,27.42-13.33c17.42,0,28.03,10.91,28.03,30v57.29h-28.79v-48.05c0-8.94-4.39-13.63-11.21-13.63
				s-11.82,4.7-11.82,13.63v48.05h-28.79v-48.05c0-8.94-4.39-13.63-11.21-13.63s-11.67,4.7-11.67,13.63v48.05h-28.78V380.14z"/>
			<polygon class="st13" points="709.96,464.66 680.68,421.27 709.32,379.28 677.6,379.28 664.92,397.91 652.35,379.28 
				619.99,379.28 648.72,421.74 619.52,464.66 651.09,464.66 664.48,445.03 677.76,464.66 			"/>
		</g>
	</g>
</g>
</svg>
