<?xml version="1.0" encoding="UTF-8" standalone="no"?>
<!DOCTYPE svg PUBLIC "-//W3C//DTD SVG 1.1//EN" "http://www.w3.org/Graphics/SVG/1.1/DTD/svg11.dtd">
<svg version="1.1" xmlns="http://www.w3.org/2000/svg" xmlns:xlink="http://www.w3.org/1999/xlink" preserveAspectRatio="xMidYMid meet" viewBox="113.5892859362116 257.7967549204766 414.9007598958477 126.46730570502075" width="410.9" height="122.47"><defs><path d="M203.98 338.82L220.31 339.1L220.31 311.74L211.69 300.74L203.98 311.74L203.98 338.82Z" id="dowvUOZOJ"></path><linearGradient id="gradientb8awBRvMUf" gradientUnits="userSpaceOnUse" x1="219.59" y1="336.58" x2="196.91" y2="302.13"><stop style="stop-color: #ffffff;stop-opacity: 1" offset="0%"></stop><stop style="stop-color: #fffaff;stop-opacity: 1" offset="4.93%"></stop><stop style="stop-color: #ffeaff;stop-opacity: 1" offset="11.12%"></stop><stop style="stop-color: #ffd0ff;stop-opacity: 1" offset="18%"></stop><stop style="stop-color: #ffacff;stop-opacity: 1" offset="25.36%"></stop><stop style="stop-color: #ff7eff;stop-opacity: 1" offset="33.12%"></stop><stop style="stop-color: #ff46ff;stop-opacity: 1" offset="41.21%"></stop><stop style="stop-color: #ff05ff;stop-opacity: 1" offset="49.43%"></stop><stop style="stop-color: #ff00ff;stop-opacity: 1" offset="50%"></stop></linearGradient><path d="M243.21 297.85L235.39 283.13L211.7 296.81L206.48 309.78L219.75 311.39L243.21 297.85Z" id="b5c2BEMNBg"></path><linearGradient id="gradientebwdAiYXr" gradientUnits="userSpaceOnUse" x1="233.6" y1="285.11" x2="215.1" y2="321.98"><stop style="stop-color: #ffffff;stop-opacity: 1" offset="0%"></stop><stop style="stop-color: #fffaff;stop-opacity: 1" offset="4.93%"></stop><stop style="stop-color: #ffeaff;stop-opacity: 1" offset="11.12%"></stop><stop style="stop-color: #ffd0ff;stop-opacity: 1" offset="18%"></stop><stop style="stop-color: #ffacff;stop-opacity: 1" offset="25.36%"></stop><stop style="stop-color: #ff7eff;stop-opacity: 1" offset="33.12%"></stop><stop style="stop-color: #ff46ff;stop-opacity: 1" offset="41.21%"></stop><stop style="stop-color: #ff05ff;stop-opacity: 1" offset="49.43%"></stop><stop style="stop-color: #ff00ff;stop-opacity: 1" offset="50%"></stop></linearGradient><path d="M188.15 283.95L179.38 298.05L203.07 311.74L216.91 309.77L211.6 297.5L188.15 283.95Z" id="b3W2OhCNbK"></path><linearGradient id="gradientdHwuZaOuz" gradientUnits="userSpaceOnUse" x1="181.99" y1="298.62" x2="223.17" y2="296.21"><stop style="stop-color: #ffffff;stop-opacity: 1" offset="0%"></stop><stop style="stop-color: #fffaff;stop-opacity: 1" offset="4.93%"></stop><stop style="stop-color: #ffeaff;stop-opacity: 1" offset="11.12%"></stop><stop style="stop-color: #ffd0ff;stop-opacity: 1" offset="18%"></stop><stop style="stop-color: #ffacff;stop-opacity: 1" offset="25.36%"></stop><stop style="stop-color: #ff7eff;stop-opacity: 1" offset="33.12%"></stop><stop style="stop-color: #ff46ff;stop-opacity: 1" offset="41.21%"></stop><stop style="stop-color: #ff05ff;stop-opacity: 1" offset="49.43%"></stop><stop style="stop-color: #ff00ff;stop-opacity: 1" offset="50%"></stop></linearGradient><path d="M241.87 289.35C240.56 287.09 239.09 285.2 237.77 283.6C236.81 282.44 234.95 282.8 234.5 284.23C231.21 294.56 221.26 302.18 211.71 296.81C211.71 296.81 211.71 296.81 211.71 296.81C211.71 296.81 211.71 296.81 211.71 296.81C211.71 296.81 211.71 296.81 211.7 296.81C211.7 296.81 211.7 296.81 211.69 296.81L211.68 296.81C197.61 288.68 189.8 284.17 188.23 283.27C187.5 282.84 186.57 282.95 185.97 283.54C184.89 284.57 183.18 286.48 181.52 289.35C180.21 291.61 179.31 293.84 178.59 295.78C178.07 297.19 179.31 298.62 180.77 298.3C191.36 295.99 202.93 300.78 203.06 311.74C203.06 311.74 203.07 311.74 203.07 311.74C203.07 311.74 203.07 311.74 203.07 311.74C203.07 311.74 203.07 311.75 203.06 311.75C203.06 328 203.06 337.02 203.06 338.83C203.06 339.67 203.62 340.42 204.43 340.65C205.87 341.06 208.38 341.6 211.68 341.6C214.3 341.6 216.68 341.26 218.72 340.92C220.2 340.67 220.82 338.88 219.8 337.77C212.55 329.81 210.9 317.48 220.14 311.85C220.2 311.82 220.25 311.79 220.31 311.75C220.31 311.75 220.31 311.75 220.3 311.74C220.3 311.74 220.3 311.74 220.3 311.74C220.3 311.74 220.3 311.74 220.3 311.74C220.3 311.74 220.3 311.74 220.3 311.74L220.32 311.74C234.39 303.62 242.21 299.11 243.77 298.21C244.52 297.77 244.88 296.92 244.68 296.1C244.31 294.66 243.52 292.21 241.87 289.35Z" id="a1BX4256n3"></path><path d="M523.25 331.46C522.23 329.59 521.19 328.15 520.44 327.23C519.9 326.55 518.98 326.32 518.19 326.67C515.18 328.03 507.78 330.51 507.78 322.03C507.78 321.24 507.78 262.26 507.78 262.26C507.78 261.41 507.22 260.67 506.4 260.44C505.03 260.04 502.63 259.52 499.28 259.52C495.88 259.52 493.43 260.04 492.02 260.45C491.21 260.69 490.67 261.43 490.67 262.28C490.67 262.28 490.67 319.49 490.67 320.04C490.67 338.9 501.89 342.09 510.51 342.09C517.4 342.09 522.33 339.81 524.53 338.55C525.33 338.09 525.68 337.15 525.39 336.29C524.99 335.14 524.3 333.39 523.25 331.46Z" id="a3oZPMHRl8"></path><path d="M337.34 289.21C333.58 285.18 328.14 283.15 321.01 283.15C317.44 283.15 314.01 283.83 310.73 285.18C307.45 286.52 304.65 288.42 302.35 290.88C301.72 290 300.91 289.11 299.92 288.2C298.93 287.29 297.78 286.46 296.48 285.71C295.17 284.96 293.64 284.34 291.9 283.87C290.16 283.4 288.17 283.15 285.95 283.15C282.31 283.15 279.14 283.87 276.45 285.29C273.76 286.71 271.54 288.5 269.8 290.63C269.49 290.08 267.05 285.61 266.74 285.05C266.52 284.64 266.14 284.32 265.69 284.16C264.71 283.83 262.75 283.34 259.79 283.34C257.29 283.34 255.39 283.69 254.21 284C253.38 284.22 252.81 284.97 252.81 285.83C252.81 291.13 252.81 333.54 252.81 338.84C252.81 339.69 253.37 340.43 254.19 340.66C255.56 341.06 257.96 341.58 261.31 341.58C264.71 341.58 267.16 341.06 268.57 340.65C269.37 340.41 269.92 339.67 269.92 338.82C269.92 335.96 269.92 313.09 269.92 310.23C269.92 306.67 270.93 303.74 272.96 301.44C274.98 299.15 277.61 298 280.85 298C283.78 298 285.98 298.91 287.44 300.74C288.91 302.56 289.64 305.13 289.64 308.46C289.64 311.5 289.64 335.85 289.64 338.89C289.64 339.74 290.2 340.48 291.02 340.72C292.36 341.1 294.65 341.59 297.84 341.59C301.06 341.59 303.41 341.1 304.77 340.71C305.59 340.47 306.15 339.73 306.15 338.88C306.15 336.01 306.15 313.1 306.15 310.24C306.15 306.67 307.14 303.75 309.13 301.45C311.1 299.16 313.76 298.01 317.08 298.01C320.01 298.01 322.21 298.92 323.68 300.74C325.14 302.57 325.87 305.14 325.87 308.47C325.87 311.51 325.87 335.81 325.87 338.85C325.87 339.7 326.44 340.44 327.25 340.68C328.62 341.08 331.03 341.6 334.37 341.6C337.77 341.6 340.22 341.07 341.63 340.66C342.44 340.43 342.98 339.68 342.98 338.84C342.98 336.63 342.98 325.6 342.98 305.73C341.73 297.41 339.85 291.91 337.34 289.21Z" id="a13QOcCFvv"></path><path d="M364.67 259.52L364.91 259.53L365.15 259.53L365.38 259.54L365.61 259.55L365.84 259.56L366.06 259.58L366.28 259.59L366.5 259.61L366.71 259.62L366.92 259.64L367.13 259.66L367.33 259.68L367.53 259.7L367.73 259.73L367.92 259.75L368.11 259.78L368.29 259.8L368.47 259.83L368.65 259.86L368.82 259.88L368.99 259.91L369.16 259.94L369.32 259.97L369.48 260L369.63 260.03L369.78 260.06L369.93 260.09L370.07 260.13L370.21 260.16L370.35 260.19L370.48 260.22L370.61 260.25L370.73 260.28L370.85 260.32L370.97 260.35L371.08 260.38L371.19 260.41L371.29 260.44L371.35 260.46L371.41 260.48L371.47 260.5L371.53 260.52L371.59 260.55L371.64 260.58L371.7 260.61L371.75 260.64L371.8 260.67L371.85 260.7L371.9 260.74L371.95 260.78L372 260.81L372.04 260.85L372.09 260.9L372.13 260.94L372.17 260.98L372.21 261.03L372.25 261.07L372.29 261.12L372.32 261.17L372.36 261.22L372.39 261.27L372.42 261.32L372.45 261.37L372.48 261.43L372.5 261.48L372.53 261.54L372.55 261.59L372.57 261.65L372.59 261.71L372.61 261.77L372.62 261.83L372.63 261.89L372.64 261.95L372.65 262.01L372.66 262.07L372.67 262.14L372.67 262.2L372.67 262.26L372.67 288.62L372.8 288.49L372.93 288.36L373.08 288.21L373.25 288.07L373.42 287.91L373.61 287.76L373.82 287.59L374.03 287.43L374.26 287.26L374.5 287.09L374.75 286.91L375.01 286.73L375.29 286.56L375.58 286.38L375.88 286.2L376.2 286.02L376.52 285.85L376.86 285.67L377.21 285.5L377.58 285.33L377.95 285.16L378.34 284.99L378.73 284.83L379.15 284.68L379.57 284.53L380 284.38L380.45 284.25L380.9 284.12L381.37 283.99L381.85 283.88L382.34 283.77L382.85 283.67L383.36 283.58L383.89 283.5L384.43 283.44L384.97 283.38L385.53 283.33L386.11 283.3L386.69 283.28L387.28 283.28L388.34 283.29L389.38 283.35L390.41 283.45L391.42 283.59L392.41 283.77L393.39 283.98L394.36 284.23L395.3 284.52L396.23 284.85L397.14 285.21L398.02 285.61L398.89 286.05L399.74 286.52L400.56 287.03L401.36 287.57L402.14 288.14L402.89 288.75L403.62 289.39L404.33 290.07L405.01 290.78L405.66 291.52L406.28 292.3L406.88 293.1L407.45 293.94L407.99 294.81L408.5 295.71L408.98 296.64L409.43 297.6L409.84 298.59L410.22 299.61L410.57 300.65L410.89 301.73L411.17 302.83L411.42 303.96L411.63 305.12L411.8 306.31L411.94 307.52L412.04 308.76L412.1 310.03L412.12 311.32L412.09 312.73L412.02 314.11L411.9 315.46L411.73 316.79L411.51 318.09L411.25 319.36L410.94 320.6L410.59 321.81L410.2 322.98L409.76 324.13L409.28 325.25L408.76 326.33L408.21 327.39L407.61 328.41L406.98 329.39L406.31 330.35L405.6 331.27L404.86 332.15L404.08 333L403.27 333.82L402.43 334.6L401.55 335.35L400.65 336.05L399.71 336.72L398.75 337.36L397.76 337.95L396.74 338.51L395.69 339.03L394.62 339.51L393.52 339.95L392.4 340.35L391.26 340.71L390.09 341.03L388.91 341.31L387.7 341.55L386.47 341.74L385.23 341.89L383.96 342L382.69 342.07L381.39 342.09L380.55 342.09L379.72 342.07L378.89 342.05L378.08 342.03L377.27 341.99L376.46 341.95L375.67 341.9L374.88 341.85L374.11 341.79L373.34 341.72L372.58 341.65L371.84 341.58L371.1 341.5L370.38 341.42L369.66 341.33L368.96 341.24L368.28 341.14L367.6 341.05L366.94 340.95L366.3 340.85L365.66 340.74L365.05 340.64L364.44 340.53L363.86 340.43L363.29 340.32L362.73 340.21L362.2 340.11L361.68 340L361.18 339.9L360.7 339.79L360.23 339.69L359.79 339.59L359.36 339.5L358.96 339.4L358.57 339.31L358.21 339.22L357.87 339.14L357.55 339.05L357.25 338.98L356.97 338.91L356.91 338.89L356.85 338.87L356.79 338.85L356.73 338.82L356.67 338.8L356.61 338.77L356.56 338.74L356.5 338.71L356.45 338.68L356.4 338.65L356.35 338.61L356.3 338.58L356.25 338.54L356.2 338.5L356.16 338.46L356.11 338.41L356.07 338.37L356.03 338.32L355.99 338.28L355.95 338.23L355.91 338.18L355.88 338.13L355.85 338.08L355.81 338.02L355.78 337.97L355.76 337.92L355.73 337.86L355.71 337.8L355.68 337.75L355.66 337.69L355.64 337.63L355.62 337.57L355.61 337.51L355.6 337.45L355.58 337.39L355.58 337.32L355.57 337.26L355.56 337.2L355.56 337.13L355.56 337.07L355.56 262.28L355.56 262.22L355.56 262.15L355.57 262.09L355.57 262.03L355.58 261.97L355.59 261.91L355.61 261.85L355.62 261.79L355.64 261.73L355.66 261.67L355.68 261.61L355.7 261.56L355.72 261.5L355.75 261.45L355.77 261.39L355.8 261.34L355.83 261.29L355.86 261.24L355.9 261.19L355.93 261.14L355.97 261.09L356.01 261.04L356.05 261L356.09 260.95L356.13 260.91L356.17 260.87L356.22 260.83L356.26 260.79L356.31 260.76L356.36 260.72L356.41 260.69L356.46 260.65L356.51 260.62L356.57 260.59L356.62 260.57L356.68 260.54L356.73 260.52L356.79 260.49L356.85 260.47L356.91 260.45L357.02 260.42L357.13 260.39L357.25 260.36L357.36 260.33L357.49 260.3L357.61 260.26L357.75 260.23L357.88 260.2L358.02 260.17L358.16 260.13L358.31 260.1L358.46 260.07L358.61 260.04L358.77 260.01L358.93 259.98L359.1 259.95L359.26 259.92L359.44 259.89L359.61 259.86L359.79 259.83L359.98 259.81L360.17 259.78L360.36 259.75L360.55 259.73L360.75 259.71L360.95 259.68L361.16 259.66L361.37 259.64L361.58 259.62L361.8 259.61L362.02 259.59L362.25 259.58L362.47 259.56L362.71 259.55L362.94 259.54L363.18 259.53L363.42 259.53L363.67 259.52L363.92 259.52L364.17 259.52L364.42 259.52L364.67 259.52ZM381.75 298.02L380.75 298.18L379.78 298.41L378.85 298.72L377.97 299.1L377.14 299.57L376.36 300.12L375.64 300.75L374.98 301.48L374.4 302.3L373.89 303.22L373.46 304.25L373.12 305.37L372.87 306.61L372.72 307.96L372.66 309.42L372.66 326.64L372.86 326.72L373.11 326.8L373.42 326.88L373.77 326.97L374.17 327.07L374.6 327.16L375.07 327.25L375.57 327.34L376.09 327.43L376.63 327.51L377.19 327.59L377.76 327.66L378.33 327.71L378.91 327.76L379.49 327.8L380.06 327.82L380.62 327.83L381.87 327.78L383.12 327.64L384.34 327.4L385.55 327.06L386.72 326.61L387.84 326.06L388.92 325.39L389.93 324.61L390.88 323.71L391.74 322.7L392.52 321.55L393.21 320.28L393.79 318.88L394.25 317.35L394.6 315.68L394.81 313.87L394.88 311.91L394.85 310.7L394.75 309.49L394.57 308.29L394.32 307.11L394 305.97L393.61 304.86L393.14 303.8L392.58 302.8L391.95 301.87L391.24 301.01L390.44 300.24L389.56 299.56L388.59 298.98L387.54 298.52L386.39 298.18L385.16 297.97L383.83 297.89L382.78 297.92L381.75 298.02Z" id="gzmEHufYy"></path><path d="M453.83 282.69L455.26 282.84L456.66 283.05L458.03 283.32L459.36 283.64L460.65 284.02L461.91 284.44L463.13 284.92L464.31 285.45L465.46 286.02L466.57 286.64L467.63 287.3L468.66 288L469.65 288.75L470.6 289.53L471.51 290.36L472.38 291.22L473.21 292.11L474 293.03L474.74 293.99L475.45 294.98L476.11 295.99L476.72 297.03L477.3 298.1L477.83 299.19L478.32 300.3L478.76 301.43L479.16 302.58L479.51 303.75L479.81 304.93L480.07 306.13L480.29 307.34L480.45 308.56L480.57 309.79L480.65 311.03L480.67 312.27L480.65 313.51L480.57 314.75L480.45 315.98L480.28 317.2L480.07 318.41L479.8 319.61L479.49 320.8L479.14 321.97L478.74 323.12L478.29 324.26L477.8 325.38L477.26 326.47L476.68 327.54L476.06 328.59L475.4 329.61L474.69 330.6L473.94 331.56L473.15 332.49L472.32 333.39L471.44 334.25L470.53 335.08L469.58 335.87L468.59 336.62L467.56 337.32L466.49 337.99L465.38 338.61L464.24 339.19L463.06 339.72L461.84 340.2L460.59 340.63L459.3 341.01L457.98 341.33L456.62 341.6L455.23 341.81L453.8 341.97L452.34 342.06L450.85 342.09L449.36 342.06L447.9 341.97L446.47 341.81L445.07 341.6L443.71 341.33L442.39 341L441.1 340.63L439.84 340.19L438.62 339.71L437.44 339.18L436.29 338.6L435.18 337.98L434.11 337.31L433.07 336.6L432.08 335.85L431.12 335.06L430.2 334.23L429.32 333.36L428.49 332.46L427.69 331.53L426.94 330.57L426.23 329.58L425.56 328.56L424.93 327.51L424.35 326.44L423.81 325.35L423.31 324.23L422.86 323.1L422.46 321.95L422.1 320.78L421.79 319.59L421.52 318.4L421.3 317.19L421.13 315.97L421.01 314.74L420.94 313.51L420.91 312.27L420.94 311.03L421.01 309.8L421.13 308.57L421.3 307.35L421.51 306.15L421.78 304.95L422.09 303.77L422.44 302.61L422.84 301.46L423.29 300.33L423.78 299.21L424.31 298.13L424.89 297.06L425.51 296.02L426.18 295L426.89 294.02L427.64 293.06L428.43 292.13L429.26 291.24L430.13 290.38L431.05 289.55L432 288.77L433 288.02L434.03 287.32L435.1 286.65L436.21 286.03L437.36 285.46L438.55 284.93L439.77 284.45L441.03 284.02L442.33 283.65L443.66 283.32L445.03 283.06L446.43 282.84L447.87 282.69L449.34 282.6L450.85 282.57L452.35 282.6L453.83 282.69ZM447.93 297.7L446.6 298.04L445.35 298.51L444.2 299.1L443.13 299.79L442.15 300.59L441.26 301.47L440.46 302.44L439.76 303.49L439.14 304.6L438.62 305.77L438.19 307L437.86 308.27L437.62 309.58L437.47 310.91L437.42 312.27L437.48 313.62L437.63 314.96L437.89 316.27L438.25 317.55L438.71 318.78L439.26 319.97L439.9 321.09L440.63 322.15L441.45 323.13L442.36 324.02L443.34 324.83L444.41 325.53L445.55 326.12L446.77 326.6L448.06 326.95L449.42 327.16L450.85 327.24L452.28 327.16L453.63 326.93L454.92 326.57L456.13 326.08L457.27 325.47L458.32 324.74L459.3 323.92L460.19 323.01L461 322.01L461.72 320.95L462.36 319.82L462.9 318.64L463.35 317.41L463.7 316.15L463.95 314.87L464.11 313.57L464.16 312.27L464.11 310.97L463.97 309.67L463.74 308.39L463.41 307.14L462.99 305.92L462.47 304.75L461.87 303.63L461.17 302.58L460.38 301.59L459.5 300.69L458.53 299.87L457.48 299.16L456.33 298.56L455.09 298.07L453.76 297.71L452.35 297.49L450.85 297.41L449.35 297.49L447.93 297.7Z" id="f3B6JqH1F3"></path><path d="M126.71 317.57C127.5 318.35 128.38 319.13 129.34 319.93C130.72 321.08 132.27 322.13 133.98 323.08C135.68 324.03 137.54 324.8 139.56 325.4C141.59 325.99 143.74 326.29 146.04 326.29C147.39 326.29 148.73 326.09 150.08 325.69C151.42 325.3 152.65 324.73 153.76 323.97C154.87 323.22 155.76 322.3 156.44 321.24C157.11 320.17 157.45 318.97 157.45 317.61C157.45 314.69 156.02 312.41 153.17 310.78C150.32 309.15 145.81 307.56 139.62 305.97C136.61 305.25 133.82 304.23 131.25 302.88C128.67 301.53 126.45 299.91 124.6 298.01C122.73 296.11 121.29 293.93 120.26 291.47C119.23 289.01 118.72 286.29 118.72 283.28C118.72 279.95 119.31 276.82 120.5 273.89C121.68 270.96 123.49 268.36 125.9 266.1C128.32 263.84 131.33 262.07 134.93 260.76C138.54 259.45 142.79 258.8 147.71 258.8C162.53 258.8 173.26 268.02 173.86 268.59C174.46 269.15 174.62 270.03 174.27 270.78C173.73 271.91 172.7 273.71 170.85 275.9C168.85 278.27 166.85 279.63 165.63 280.32C164.96 280.69 164.15 280.64 163.54 280.17C162.89 279.66 162.2 279.13 161.43 278.58C160.28 277.76 158.99 276.98 157.57 276.27C156.14 275.55 154.58 274.96 152.88 274.49C151.17 274.02 149.37 273.77 147.47 273.77C146.2 273.77 144.95 273.97 143.73 274.37C142.5 274.76 141.4 275.3 140.4 275.97C139.41 276.65 138.62 277.44 138.02 278.35C137.43 279.26 137.13 280.23 137.13 281.26C137.13 283.95 138.56 286.13 141.41 287.8C144.26 289.46 148.18 290.85 153.17 291.96C156.1 292.67 158.97 293.64 161.78 294.87C164.6 296.1 167.11 297.7 169.33 299.68C171.55 301.66 173.32 304.1 174.67 306.99C176.02 309.87 176.69 313.39 176.69 317.5C176.69 321.06 175.9 324.35 174.31 327.36C172.73 330.37 170.57 332.98 167.84 335.2C165.1 337.42 161.89 339.14 158.21 340.37C154.52 341.6 150.55 342.21 146.27 342.21C142.31 342.21 138.71 341.83 135.46 341.09C132.21 340.34 129.28 339.35 126.66 338.12C124.05 336.89 121.69 335.49 119.59 333.9C117.92 332.63 116.44 331.35 115.15 330.04C114.55 329.43 114.42 328.52 114.83 327.78C115.58 326.42 117 324.12 119.11 321.78C121.13 319.54 123.12 318.09 124.38 317.3C125.13 316.84 126.09 316.95 126.71 317.57Z" id="iTb6TzUYM"></path><path d="M393.65 380.99L393.65 361.58L404.5 361.58L404.5 363.73L396.09 363.73L396.09 370.61L403.98 370.61L403.98 372.74L396.09 372.74L396.09 380.99L393.65 380.99Z" id="c1YAc6QK0y"></path><path d="M415.94 366.31C415.91 366.53 415.68 368.3 415.65 368.52C415.11 368.39 414.59 368.33 414.07 368.33C413.3 368.33 412.59 368.54 411.93 368.96C411.27 369.39 410.75 369.98 410.38 370.72C410 371.47 409.82 372.29 409.82 373.21C409.82 373.72 409.82 376.32 409.82 380.99L407.43 380.99L407.43 366.41L409.4 366.41L409.66 369.08C409.72 369.08 409.76 369.08 409.77 369.08C410.32 368.11 410.98 367.38 411.74 366.89C412.5 366.39 413.33 366.15 414.23 366.15C414.88 366.15 415.45 366.2 415.94 366.31Z" id="lbfDclb9o"></path><path d="M425.67 366.25L426.28 366.38L426.85 366.55L427.4 366.78L427.91 367.05L428.39 367.38L428.84 367.75L429.26 368.17L429.64 368.64L429.97 369.15L430.26 369.69L430.51 370.26L430.71 370.87L430.87 371.52L430.98 372.2L431.05 372.92L431.07 373.68L431.05 374.45L430.98 375.19L430.87 375.88L430.71 376.54L430.51 377.16L430.27 377.74L429.97 378.29L429.64 378.79L429.26 379.26L428.84 379.68L428.39 380.05L427.9 380.37L427.38 380.64L426.83 380.87L426.24 381.04L425.61 381.16L424.96 381.24L424.26 381.26L423.83 381.25L423.41 381.22L422.99 381.16L422.59 381.08L422.21 380.98L421.83 380.86L421.46 380.71L421.1 380.54L420.76 380.34L420.43 380.13L420.12 379.89L419.82 379.64L419.54 379.36L419.28 379.07L419.04 378.76L418.81 378.42L418.6 378.07L418.41 377.69L418.24 377.3L418.09 376.89L417.95 376.48L417.84 376.04L417.75 375.6L417.68 375.14L417.63 374.67L417.6 374.18L417.59 373.68L417.61 372.91L417.68 372.17L417.79 371.48L417.94 370.83L418.14 370.21L418.38 369.63L418.67 369.1L419 368.6L419.37 368.14L419.78 367.72L420.23 367.35L420.71 367.03L421.23 366.76L421.79 366.54L422.38 366.37L423.01 366.25L423.67 366.18L424.36 366.15L425.03 366.18L425.67 366.25ZM421.94 368.76L421.12 369.53L420.53 370.61L420.18 371.99L420.06 373.68L420.09 374.56L420.18 375.36L420.33 376.09L420.54 376.75L420.81 377.34L421.14 377.85L421.53 378.29L421.98 378.64L422.48 378.92L423.04 379.12L423.66 379.24L424.33 379.28L425 379.24L425.61 379.12L426.17 378.92L426.67 378.64L427.11 378.29L427.5 377.85L427.83 377.34L428.11 376.75L428.32 376.09L428.47 375.36L428.56 374.56L428.59 373.68L428.56 372.8L428.47 372L428.32 371.27L428.1 370.62L427.83 370.04L427.5 369.54L427.1 369.12L426.65 368.77L426.14 368.5L425.58 368.31L424.96 368.19L424.29 368.15L423 368.3L421.94 368.76Z" id="a5RRouu56o"></path><path d="M453.4 371.6C453.4 369.3 452.41 368.15 450.44 368.15C449.08 368.15 448.09 368.55 447.45 369.33C446.81 370.12 446.49 371.32 446.49 372.94C446.49 373.48 446.49 376.16 446.49 380.98L444.11 380.98C444.11 375.35 444.11 372.22 444.11 371.59C444.11 370.45 443.87 369.58 443.39 369C442.91 368.42 442.15 368.14 441.13 368.14C439.78 368.14 438.79 368.55 438.17 369.37C437.55 370.2 437.23 371.55 437.23 373.43C437.23 373.93 437.23 376.45 437.23 380.98L434.85 380.98L434.85 366.4L436.77 366.4L437.13 368.39C437.2 368.39 437.25 368.39 437.26 368.39C437.67 367.69 438.26 367.13 439.01 366.74C439.77 366.34 440.62 366.14 441.55 366.14C443.83 366.14 445.32 366.95 446.01 368.58C446.03 368.58 446.13 368.58 446.14 368.58C446.61 367.8 447.25 367.19 448.06 366.77C448.86 366.34 449.78 366.13 450.81 366.13C452.46 366.13 453.69 366.55 454.5 367.41C455.33 368.26 455.74 369.62 455.74 371.48C455.74 372.11 455.74 375.28 455.74 380.98L453.4 380.98C453.4 375.35 453.4 372.23 453.4 371.6Z" id="eQ7RPefOi"></path><path d="M480.21 380.99L469.81 364.87L469.7 364.87C469.74 365.51 469.77 365.87 469.77 365.94C469.88 367.55 469.93 368.95 469.93 370.13C469.93 370.86 469.93 374.47 469.93 380.98L467.67 380.98L467.67 361.57L470.5 361.57L471.1 362.51L477.47 372.36L480.85 377.64C480.92 377.64 480.95 377.64 480.96 377.64C480.94 377.43 480.91 376.66 480.85 375.36C480.8 374.05 480.78 373.11 480.78 372.52C480.78 371.79 480.78 368.14 480.78 361.57L483.06 361.57L483.06 380.99L480.21 380.99Z" id="a1jLOb7j4"></path><path d="M488.34 380.99L488.34 361.58L499.19 361.58L499.19 363.73L490.78 363.73L490.78 369.78L498.7 369.78L498.7 371.9L490.78 371.9L490.78 378.83L499.19 378.83L499.19 380.99L488.34 380.99Z" id="a2nM6pgcDq"></path><path d="M505.63 363.97C505.56 363.97 505.53 363.97 505.52 363.97C505.65 365.38 505.72 367.13 505.72 369.21C505.72 370 505.72 373.93 505.72 380.99L503.46 380.99L503.46 361.58L507.07 361.58L513.06 377.49L513.17 377.49L519.27 361.58L522.85 361.58L522.85 380.99L520.44 380.99C520.44 373.83 520.44 369.85 520.44 369.06C520.44 367.72 520.5 366.04 520.62 364C520.61 364 520.58 364 520.51 364L514.04 381L512.03 381L505.63 363.97Z" id="bXRKIqtOj"></path></defs><g><g><use xlink:href="#dowvUOZOJ" opacity="1" fill="url(#gradientb8awBRvMUf)"></use><g><use xlink:href="#dowvUOZOJ" opacity="1" fill-opacity="0" stroke="#000000" stroke-width="1" stroke-opacity="0"></use></g></g><g><use xlink:href="#b5c2BEMNBg" opacity="1" fill="url(#gradientebwdAiYXr)"></use><g><use xlink:href="#b5c2BEMNBg" opacity="1" fill-opacity="0" stroke="#000000" stroke-width="1" stroke-opacity="0"></use></g></g><g><use xlink:href="#b3W2OhCNbK" opacity="1" fill="url(#gradientdHwuZaOuz)"></use><g><use xlink:href="#b3W2OhCNbK" opacity="1" fill-opacity="0" stroke="#000000" stroke-width="1" stroke-opacity="0"></use></g></g><g><use xlink:href="#a1BX4256n3" opacity="1" fill="#ffffff" fill-opacity="1"></use><g><use xlink:href="#a1BX4256n3" opacity="1" fill-opacity="0" stroke="#000000" stroke-width="1" stroke-opacity="0"></use></g></g><g><use xlink:href="#a3oZPMHRl8" opacity="1" fill="#ffffff" fill-opacity="1"></use><g><use xlink:href="#a3oZPMHRl8" opacity="1" fill-opacity="0" stroke="#000000" stroke-width="1" stroke-opacity="0"></use></g></g><g><use xlink:href="#a13QOcCFvv" opacity="1" fill="#ffffff" fill-opacity="1"></use><g><use xlink:href="#a13QOcCFvv" opacity="1" fill-opacity="0" stroke="#000000" stroke-width="1" stroke-opacity="0"></use></g></g><g><use xlink:href="#gzmEHufYy" opacity="1" fill="#ffffff" fill-opacity="1"></use><g><use xlink:href="#gzmEHufYy" opacity="1" fill-opacity="0" stroke="#000000" stroke-width="1" stroke-opacity="0"></use></g></g><g><use xlink:href="#f3B6JqH1F3" opacity="1" fill="#ffffff" fill-opacity="1"></use><g><use xlink:href="#f3B6JqH1F3" opacity="1" fill-opacity="0" stroke="#000000" stroke-width="1" stroke-opacity="0"></use></g></g><g><use xlink:href="#iTb6TzUYM" opacity="1" fill="#ffffff" fill-opacity="1"></use><g><use xlink:href="#iTb6TzUYM" opacity="1" fill-opacity="0" stroke="#000000" stroke-width="1" stroke-opacity="0"></use></g></g><g><use xlink:href="#c1YAc6QK0y" opacity="1" fill="#ffffff" fill-opacity="1"></use><g><use xlink:href="#c1YAc6QK0y" opacity="1" fill-opacity="0" stroke="#000000" stroke-width="1" stroke-opacity="0"></use></g></g><g><use xlink:href="#lbfDclb9o" opacity="1" fill="#ffffff" fill-opacity="1"></use><g><use xlink:href="#lbfDclb9o" opacity="1" fill-opacity="0" stroke="#000000" stroke-width="1" stroke-opacity="0"></use></g></g><g><use xlink:href="#a5RRouu56o" opacity="1" fill="#ffffff" fill-opacity="1"></use><g><use xlink:href="#a5RRouu56o" opacity="1" fill-opacity="0" stroke="#000000" stroke-width="1" stroke-opacity="0"></use></g></g><g><use xlink:href="#eQ7RPefOi" opacity="1" fill="#ffffff" fill-opacity="1"></use><g><use xlink:href="#eQ7RPefOi" opacity="1" fill-opacity="0" stroke="#000000" stroke-width="1" stroke-opacity="0"></use></g></g><g><use xlink:href="#a1jLOb7j4" opacity="1" fill="#ffffff" fill-opacity="1"></use><g><use xlink:href="#a1jLOb7j4" opacity="1" fill-opacity="0" stroke="#000000" stroke-width="1" stroke-opacity="0"></use></g></g><g><use xlink:href="#a2nM6pgcDq" opacity="1" fill="#ffffff" fill-opacity="1"></use><g><use xlink:href="#a2nM6pgcDq" opacity="1" fill-opacity="0" stroke="#000000" stroke-width="1" stroke-opacity="0"></use></g></g><g><use xlink:href="#bXRKIqtOj" opacity="1" fill="#ffffff" fill-opacity="1"></use><g><use xlink:href="#bXRKIqtOj" opacity="1" fill-opacity="0" stroke="#000000" stroke-width="1" stroke-opacity="0"></use></g></g></g></svg>