<?xml version="1.0" encoding="utf-8"?>
<!-- Generator: Adobe Illustrator 21.1.0, SVG Export Plug-In . SVG Version: 6.00 Build 0)  -->
<svg version="1.1" id="Layer_1" xmlns="http://www.w3.org/2000/svg" xmlns:xlink="http://www.w3.org/1999/xlink" x="0px" y="0px"
	 viewBox="0 0 1024 313.1" style="enable-background:new 0 0 1024 313.1;" xml:space="preserve">
<style type="text/css">
	.st0{fill:#05CCBB;}
	.st1{fill:#3BB8E9;}
	.st2{fill:#F5A81C;}
	.st3{fill:#211F33;}
</style>
<g>
	<path class="st0" d="M950.6,147.2c0.3-0.2,0.7-0.4,1-0.6c9.7-5.7,18.7-12.5,26.8-20.3c0.5-0.5,0.9-1.1,1.3-1.7
		c0.5-1,1.1-2.1,1.6-3.1c3.9-8.1,4.7-16.4,2.1-25c-5-16.7-21.1-26.3-37.2-24.2c-4.6,0.6-8.9,2-12.9,4.3c-7.7,4.3-15.9,6.1-24.6,5.3
		c-4.3-0.4-8.4-1.5-12.4-3.2c-3.1-1.4-6-3.1-8.7-5.2c-0.2-0.2-0.4-0.3-0.8-0.5c0.1,0.4,0.2,0.6,0.3,0.8c3.4,8.8,7.7,17.1,12.8,25.1
		c5.5,8.6,11.8,16.5,18.9,23.8c7.1,7.3,14.9,13.7,23.4,19.4C945.9,144.5,949.5,146.7,950.6,147.2"/>
	<path class="st1" d="M991,112.7c0.4-0.2,0.6-0.5,0.8-0.8c3.1-3.9,6-7.9,8.7-12c9.7-15,16.4-31.2,20.2-48.6
		c1.3-5.9,2.2-11.9,2.7-17.9c0.4-4.1,0.6-8.2,0.6-12.3c0-0.3,0-0.6-0.1-0.8c-0.4-0.2-0.8-0.5-1.1-0.7c-3.2-1.8-6.4-3.5-9.7-5
		c-4.8-2.2-9.6-4.3-14.6-5.8C992.4,6.7,986.3,6.5,980,8c-17.7,4.3-29,21.6-25.7,39.5c1.9,9.9,7.2,17.6,15.7,23
		c0.6,0.4,1.2,0.7,1.7,1.1c6.2,3.8,11.1,8.9,14.6,15.4c3.7,6.7,5.3,14,4.9,21.7C991.3,109.8,991.1,111.2,991,112.7"/>
	<path class="st2" d="M877.1,20.1v1c0,5.7,0.4,11.3,1,16.9c0.6,5.1,1.5,10.1,2.6,15.1c0.2,0.9,0.5,1.7,0.9,2.5
		c6.9,14.8,23,22.6,38.9,19c12.1-2.7,22-12.1,25.4-24.1c0.9-3.3,1.2-6.7,1.4-10.1c0.1-2.3,0.3-4.5,0.7-6.7
		c2.6-13.6,11.7-24.8,24.4-30.1c0.7-0.3,1.4-0.6,2.2-0.8c0.1,0,0.3-0.1,0.2-0.2c-2-0.7-14-1.9-21.2-2c-15.4-0.3-30.6,1.7-45.4,6.2
		C897.3,9.9,887,14.4,877.1,20.1"/>
</g>
<g>
	<path class="st3" d="M491.7,307.5h80.6V182.8c0-25,13.6-38.2,32.7-38.2c19.1,0,31.4,13.1,31.4,38.2v124.7H717V182.8
		c0-25,14-38.2,33.1-38.2c19.1,0,31.4,13.1,31.4,38.2v124.7h80.6V156.9c0-53.4-29.7-84-78.5-84c-33.5,0-56.8,14.4-76.8,37.3
		c-12.3-23.8-35.6-37.3-66.2-37.3c-32.3,0-53.5,17.4-68.3,36.5V78h-80.6L491.7,307.5L491.7,307.5z M319,173.9
		c4.2-25,18.7-41.6,39.9-41.6c22.1,0,36.9,16.1,39.9,41.6H319z M365.7,313.1c45.8,0,77.6-18.7,99.7-46.7l-44.5-36.9
		c-16.5,16.1-31.8,23.3-50.9,23.3c-25,0-43.3-12.7-49.6-37.8h153.6c0.4-5.5,0.4-11.5,0.4-16.5c0-67.5-36.5-125.6-115.8-125.6
		c-67.9,0-115.8,53-115.8,120.1v0.8C242.7,265.1,293.6,313.1,365.7,313.1 M0,307.5h80.6V183.2c0-25,14.4-38.6,33.9-38.6
		c19.1,0,32.3,13.6,32.3,38.6v124.3h80.6V157.4c0-52.2-29.3-84.4-78.1-84.4c-32.7,0-53.9,18.2-68.7,37.3V78H0V307.5z"/>
</g>
</svg>
