<svg id="Layer_1" data-name="Layer 1" xmlns="http://www.w3.org/2000/svg" viewBox="0 0 394.86 109.47"><defs><style>.cls-1{fill:#fff;}.cls-2{fill:#8d33e5;}.cls-3{fill:#7000df;}.cls-4{fill:#3f017f;}.cls-5{fill:#531b8c;}.cls-6{fill:#f4a900;}.cls-7{fill:#78b6e4;}.cls-8{fill:#20b5ac;}</style></defs><path class="cls-1" d="M157.85,74.74h-10.7c-5.7,0-9.87-4-9.87-9.38V62.79h6.95v2.92a2.59,2.59,0,0,0,2.43,2.57h11.68a2.59,2.59,0,0,0,2.43-2.57V60.5c0-4.1-8.2-2.71-13.35-2.85-5.62-.21-9.86-4-9.86-9.45V43.68c0-5.42,4.17-9.38,9.86-9.38h9.87c5.7,0,9.87,4,9.87,9.38v2.64h-6.95v-3a2.59,2.59,0,0,0-2.43-2.57H146.94a2.59,2.59,0,0,0-2.43,2.57v5.28c0,4.1,8.2,2.71,13.34,2.78,5.56.14,9.87,4,9.87,9.45v4.52C167.72,70.78,163.55,74.74,157.85,74.74Z"/><path class="cls-1" d="M208.44,51.53l-8.9,8.83V74.6h-7.08V60.36l-8.9-8.83a7.66,7.66,0,0,1-2.64-6.46V34.3h7V44.79c0,1.46,0,1.67.9,2.5l7.16,7.3,7.23-7.3c.9-.83.9-1,.9-2.5V34.3h7V45.07A7.66,7.66,0,0,1,208.44,51.53Z"/><path class="cls-1" d="M251.11,74.6V45.83l-7.37,8.48h-4.31l-7.36-8.48V74.6H225V34.3h5.77L241.8,47.15c.27-.83,10.63-12.85,10.63-12.85h5.77V74.6Z"/><path class="cls-1" d="M291.55,74.6H272.09V34.3h19.46c5.7,0,10,4.1,10,9.52v4.1a7.64,7.64,0,0,1-2.71,6.32,7,7,0,0,1,2.71,5.84v5C301.56,70.5,297.25,74.6,291.55,74.6Zm2.92-31.27A2.8,2.8,0,0,0,292,40.55H279v10.5h12.37c2.51,0,3.13-.77,3.13-3.2Zm0,17.37c0-2.57-.62-3.33-2.85-3.33H279V68.42H292a2.8,2.8,0,0,0,2.43-2.78Z"/><path class="cls-1" d="M337.42,74.6H325.33c-5.7,0-9.87-4-9.87-9.38V43.68c0-5.42,4.17-9.38,9.87-9.38h12.09c5.7,0,9.87,4,9.87,9.38V65.22C347.29,70.64,343.12,74.6,337.42,74.6Zm2.92-31.27a2.59,2.59,0,0,0-2.43-2.57H324.84a2.59,2.59,0,0,0-2.43,2.57V65.57a2.59,2.59,0,0,0,2.43,2.57h13.07a2.59,2.59,0,0,0,2.43-2.57Z"/><path class="cls-1" d="M361.19,74.6V34.3h7.22V68.14h18.07V74.6Z"/><path class="cls-2" d="M52.2,9.62c15.44,0,30,4.69,43.4,12.39l1,.44L96.3,23.5A84.29,84.29,0,0,1,84.45,66.36a85.91,85.91,0,0,1-31.53,32l-.72.52-.77-.55C38.1,90.61,28,79.74,20.34,66.4S8.08,38.24,8.06,22.84l-.13-.72.52-.41C21.82,14,36.75,9.53,52.18,9.52"/><path class="cls-3" d="M96.08,21.58A88,88,0,0,0,52.2,9.64V98.37l1,.6A87.55,87.55,0,0,0,85.12,66.81,87.12,87.12,0,0,0,97,23.17v-1.1Z"/><path class="cls-4" d="M97.14,23V21.83l-1-.58a88.06,88.06,0,0,0-87.93,0l-1,.58V23a88,88,0,0,0,44,76l1,.57,1-.57a87.9,87.9,0,0,0,44-76Zm-45,72.12C26.26,80,9.67,52.92,9.5,22.94a87.06,87.06,0,0,1,85.4,0C94.75,53,78.14,80,52.18,95.09Z"/><path class="cls-5" d="M52.2,95.09C26.26,80,9.67,52.92,9.5,22.94A87.35,87.35,0,0,1,52.2,11.75V9.49a88.13,88.13,0,0,0-44,11.76l-1,.58V23a88,88,0,0,0,44,76l1,.57V95.09Z"/><path class="cls-4" d="M80.48,37.51a3,3,0,0,0-.17-1,27.3,27.3,0,0,0-4.39-8c-.45-.62-1-1.2-1.48-1.81l-.39-.45a2.41,2.41,0,0,0-.56-.45,2.56,2.56,0,0,0-1.36-.35,2.73,2.73,0,0,0-.69.14,1.37,1.37,0,0,0-.31.13S54.75,34.59,52.21,35.91C49.68,34.59,33.39,25.66,33,25.63a2.73,2.73,0,0,0-.69-.14,2.64,2.64,0,0,0-1.37.35,2,2,0,0,0-.55.45l-.39.45c-.51.58-1,1.16-1.48,1.81a30.23,30.23,0,0,0-4.34,7.63,3.09,3.09,0,0,0-.3,1.33A3.12,3.12,0,0,0,25,39.94a1.06,1.06,0,0,0,.21.16l.21.14.31.21,2.57,1.6,5.11,3.18,5.12,3.22L42.79,51l.06,18,0,2,0,1a3.89,3.89,0,0,0,0,.57,3.66,3.66,0,0,0,.24,1,4,4,0,0,0,1.19,1.5,5.21,5.21,0,0,0,1.75.82,19.16,19.16,0,0,0,1.95.39,29.73,29.73,0,0,0,8.32,0c1-.16,1.25-.22,1.91-.37a4.17,4.17,0,0,0,1.77-.84,4,4,0,0,0,1.19-1.5,3.66,3.66,0,0,0,.24-1c0-.22,0-.39,0-.57,0,0,.22-16.23.15-20.95l4.21-2.57L71,45.21,76.15,42l2.56-1.61,0,0A3.2,3.2,0,0,0,80.48,37.51Z"/><path class="cls-6" d="M44.74,50a10,10,0,0,0-1-4.39,10.14,10.14,0,0,0-2.8-3.5c-3.37-2.69-8.62-3.66-13.71-2.55-.33.06-1.26-.5-1.59-.57,0,0-.08-.06.1.1s.14.29.18.32L44.74,50.2Z"/><path class="cls-7" d="M61.21,38.18c4-1.57,7.47-5.62,9.06-10.56.12-.36.75-.45,1-.69.09-.07-.21-.39-.11-.45l-19,10.93.24.13a10,10,0,0,0,8.76.64Z"/><path class="cls-8" d="M59.32,50.5a9.9,9.9,0,0,0-4.81,7.24C53.91,62,55.68,67,59.17,70.8c.27.28.25.81.31,1.18,0,.1.11.1.21.16l.08-21.86Z"/><path class="cls-4" d="M55.39,58.57a10,10,0,0,1,5.13-7.09l-.78-1.22-.42.26a9.69,9.69,0,0,0-3.24,3.06,10,10,0,0,0-1.57,4.18C54,61.47,55.29,65.81,58,69.4A17.23,17.23,0,0,1,55.39,58.57Z"/><path class="cls-4" d="M61.39,37.06a10,10,0,0,1-8.7-.94L52,37.39l.43.26a10,10,0,0,0,8.67.61,18.14,18.14,0,0,0,9-8.95c0-.07-.27-.4-.55.2A17.09,17.09,0,0,1,61.39,37.06Z"/><path class="cls-4" d="M39.88,42.76a9,9,0,0,1,3.31,7.62l1.44.45.45-.49c.09-3-1.24-6.85-3.63-8.8C38.68,39.2,32.84,38.42,28.92,39c-.15,0-.22.25.81.21A15.74,15.74,0,0,1,39.88,42.76Z"/><path class="cls-1" d="M52.2,74.65a23.06,23.06,0,0,1-6-.78A2,2,0,0,1,44.74,72V50A10,10,0,0,0,41,42.13c-3.37-2.69-8.62-3.66-13.71-2.55a1.94,1.94,0,0,1-1.5-.26,2,2,0,0,1-.89-1.24,1.93,1.93,0,0,1,.08-1.14,33.73,33.73,0,0,1,2.38-5.27A22.15,22.15,0,0,1,31,26.87a2,2,0,0,1,2.38-.28L51.93,37.27l.49.29a9.9,9.9,0,0,0,8.74.62c4-1.57,7.48-5.62,9.07-10.56a2,2,0,0,1,.37-.69,2.32,2.32,0,0,1,.62-.49,2.25,2.25,0,0,1,.75-.23,1.76,1.76,0,0,1,.78.09,2.06,2.06,0,0,1,.94.63,34,34,0,0,1,3.37,4.72,21.19,21.19,0,0,1,2.32,5.59,2,2,0,0,1-.1,1.26,1.92,1.92,0,0,1-.84.94L59.78,50.2l-.51.3a10,10,0,0,0-4.81,7.24C53.86,62,55.63,67,59.12,70.8a2,2,0,0,1,.42,2,2,2,0,0,1-.6.87,2.08,2.08,0,0,1-1,.45A37.32,37.32,0,0,1,52.2,74.65Z"/></svg>